<svg width="305" height="118" viewBox="0 0 305 118" fill="none" xmlns="http://www.w3.org/2000/svg">
<mask id="mask0" mask-type="alpha" maskUnits="userSpaceOnUse" x="0" y="0" width="104" height="104">
<circle cx="52" cy="52" r="52" fill="#3CF47B"/>
</mask>
<g mask="url(#mask0)">
<circle cx="104" cy="52" r="52" fill="#F1F43C"/>
<circle cx="52" cy="99" r="52" fill="#F43C68"/>
</g>
<path d="M125.036 49.676V70.272H146.544V49.676H155.512V99H146.544V78.1H125.036V99H116.068V49.676H125.036ZM200.736 66.396C203.877 69.9427 205.448 74.604 205.448 80.38C205.448 86.156 203.801 90.9187 200.508 94.668C197.316 98.2653 193.339 100.064 188.576 100.064C186.296 100.064 184.193 99.456 182.268 98.24C180.393 97.024 178.899 95.1493 177.784 92.616L175.58 99H169.728V46.864H178.696V66.7C181.027 62.9507 184.497 61.076 189.108 61.076C193.769 61.076 197.645 62.8493 200.736 66.396ZM178.696 78.252V83.116C178.797 85.7 179.735 87.828 181.508 89.5C183.18 91.1213 185.207 91.932 187.588 91.932C190.02 91.932 192.097 90.8933 193.82 88.816C195.543 86.688 196.404 83.9013 196.404 80.456C196.404 77.0107 195.543 74.2747 193.82 72.248C192.148 70.1707 190.045 69.132 187.512 69.132C184.979 69.132 182.876 69.968 181.204 71.64C179.532 73.312 178.696 75.516 178.696 78.252ZM217.172 61.988H226.14V99H217.172V61.988ZM216.108 50.132C216.108 48.5107 216.589 47.244 217.552 46.332C218.514 45.3693 219.882 44.888 221.656 44.888C223.378 44.888 224.721 45.3693 225.684 46.332C226.697 47.244 227.204 48.5107 227.204 50.132C227.204 51.7533 226.697 53.0453 225.684 54.008C224.721 54.92 223.378 55.376 221.656 55.376C219.882 55.376 218.514 54.92 217.552 54.008C216.589 53.0453 216.108 51.7533 216.108 50.132ZM262.173 98.088C258.829 99.4053 256.195 100.064 254.269 100.064C252.344 100.064 250.647 99.836 249.177 99.38C247.759 98.924 246.492 98.24 245.377 97.328C243.047 95.2507 241.881 92.388 241.881 88.74V68.068H236.713V62.064H241.881V52.336H250.849V62.064H260.881V68.068H250.849V88.436C250.849 91.476 252.293 92.996 255.181 92.996C256.651 92.996 258.551 92.5907 260.881 91.78L262.173 98.088ZM276.35 87.752C276.451 91.248 279.01 92.996 284.026 92.996C285.951 92.996 287.522 92.5907 288.738 91.78C290.004 90.9187 290.638 89.9307 290.638 88.816C290.638 87.7013 290.258 86.84 289.498 86.232C288.738 85.624 287.547 85.0667 285.926 84.56L277.87 81.672C271.891 79.5947 268.902 76.2 268.902 71.488C268.902 68.3467 270.295 65.8387 273.082 63.964C275.919 62.0387 279.694 61.076 284.406 61.076C289.168 61.076 292.816 62.1147 295.35 64.192C297.934 66.2693 299.276 68.8787 299.378 72.02H290.942C290.84 70.804 290.258 69.8413 289.194 69.132C288.13 68.4227 286.61 68.068 284.634 68.068C282.658 68.068 281.112 68.4733 279.998 69.284C278.934 70.044 278.402 70.9307 278.402 71.944C278.402 73.7173 279.896 75.0347 282.886 75.896L291.626 79.164C294.514 80.1267 296.718 81.368 298.238 82.888C299.808 84.3573 300.594 86.2827 300.594 88.664C300.594 91.704 299.15 94.3387 296.262 96.568C293.272 98.8987 289.32 100.064 284.406 100.064C279.491 100.064 275.539 99 272.55 96.872C269.56 94.6933 268.04 91.6533 267.99 87.752H276.35Z" fill="#1F1F1F"/>
</svg>
